<svg width="38" height="39" viewBox="0 0 38 39" fill="none" xmlns="http://www.w3.org/2000/svg">
<path d="M3.1665 35.75H34.8332" stroke="#E41414" stroke-width="1.5" stroke-linecap="round" stroke-linejoin="round"/>
<path d="M4.92432 35.75V21.125C4.92432 18.4275 7.28348 16.25 10.1968 16.25H27.7876C30.701 16.25 33.0601 18.4275 33.0601 21.125V35.75" stroke="#E41414" stroke-width="1.5" stroke-linecap="round" stroke-linejoin="round"/>
<path d="M8.80322 16.25V11.6513C8.80322 9.70125 10.5132 8.125 12.6349 8.125H25.3807C27.4866 8.125 29.1966 9.70125 29.1966 11.6513V16.25" stroke="#E41414" stroke-width="1.5" stroke-linecap="round" stroke-linejoin="round"/>
<path d="M5.58936 22.7173L6.17519 22.7335C7.34686 22.7498 8.28102 23.7248 8.28102 24.9273V25.4635C8.28102 26.666 9.23102 27.6573 10.4185 27.6573C11.5902 27.6573 12.556 26.6823 12.556 25.4635V24.9598C12.556 23.7573 13.506 22.766 14.6935 22.766C15.8652 22.766 16.831 23.741 16.831 24.9598V25.4635C16.831 26.666 17.781 27.6573 18.9685 27.6573C20.1402 27.6573 21.106 26.6823 21.106 25.4635V24.9598C21.106 23.7573 22.056 22.766 23.2435 22.766C24.4152 22.766 25.381 23.741 25.381 24.9598V25.4635C25.381 26.666 26.331 27.6573 27.5185 27.6573C28.6902 27.6573 29.656 26.6823 29.656 25.4635V24.9598C29.656 23.7573 30.606 22.766 31.7935 22.766H32.506" stroke="#E41414" stroke-width="1.5" stroke-linecap="round" stroke-linejoin="round"/>
<path d="M12.6665 8.125V4.875" stroke="#E41414" stroke-width="1.5" stroke-linecap="round" stroke-linejoin="round"/>
<path d="M25.3335 8.125V4.875" stroke="#E41414" stroke-width="1.5" stroke-linecap="round" stroke-linejoin="round"/>
<path d="M19 8.125V3.25" stroke="#E41414" stroke-width="1.5" stroke-linecap="round" stroke-linejoin="round"/>
</svg>
