<svg width="38" height="39" viewBox="0 0 38 39" fill="none" xmlns="http://www.w3.org/2000/svg">
<path d="M34.7857 29.7862C34.7857 30.3712 34.659 30.9725 34.3898 31.5575C34.1207 32.1425 33.7723 32.695 33.3132 33.215C32.5373 34.0925 31.6823 34.7263 30.7165 35.1325C29.7665 35.5388 28.7373 35.75 27.629 35.75C26.014 35.75 24.2882 35.36 22.4673 34.5638C20.6465 33.7675 18.8257 32.695 17.0207 31.3463C15.1998 29.9813 13.474 28.47 11.8273 26.7962C10.1965 25.1062 8.724 23.335 7.40984 21.4825C6.1115 19.63 5.0665 17.7775 4.3065 15.9413C3.5465 14.0888 3.1665 12.3175 3.1665 10.6275C3.1665 9.5225 3.3565 8.46625 3.7365 7.49125C4.1165 6.5 4.71817 5.59 5.55734 4.7775C6.57067 3.75375 7.679 3.25 8.85067 3.25C9.294 3.25 9.73734 3.3475 10.1332 3.5425C10.5448 3.7375 10.909 4.03 11.194 4.4525L14.8673 9.76625C15.1523 10.1725 15.3582 10.5463 15.5007 10.9038C15.6432 11.245 15.7223 11.5863 15.7223 11.895C15.7223 12.285 15.6115 12.675 15.3898 13.0487C15.184 13.4225 14.8832 13.8125 14.5032 14.2025L13.2998 15.4862C13.1257 15.665 13.0465 15.8763 13.0465 16.1363C13.0465 16.2663 13.0623 16.38 13.094 16.51C13.1415 16.64 13.189 16.7375 13.2207 16.835C13.5057 17.3712 13.9965 18.07 14.6932 18.915C15.4057 19.76 16.1657 20.6213 16.989 21.4825C17.844 22.3438 18.6673 23.14 19.5065 23.8712C20.3298 24.5862 21.0107 25.0737 21.549 25.3662C21.6282 25.3987 21.7232 25.4475 21.834 25.4962C21.9607 25.545 22.0873 25.5612 22.2298 25.5612C22.499 25.5612 22.7048 25.4638 22.879 25.285L24.0823 24.0663C24.4782 23.66 24.8582 23.3512 25.2223 23.1562C25.5865 22.9287 25.9507 22.815 26.3465 22.815C26.6473 22.815 26.964 22.88 27.3123 23.0263C27.6607 23.1725 28.0248 23.3838 28.4207 23.66L33.6615 27.4787C34.0732 27.7712 34.3582 28.1125 34.5323 28.5187C34.6907 28.925 34.7857 29.3312 34.7857 29.7862Z" stroke="#FF0000" stroke-width="1.5" stroke-miterlimit="10"/>
</svg>
