<svg width="101" height="15" viewBox="0 0 101 15" fill="none" xmlns="http://www.w3.org/2000/svg">
<path d="M88.632 1.44V0.619995H94.272V1.44L92.372 1.65999L95.152 7.72L98.012 1.67999L96.212 1.44V0.619995H100.792V1.44L99.032 1.7L95.632 8.74C95.632 9.51333 95.632 10.2533 95.632 10.96C95.6454 11.6533 95.6587 12.32 95.672 12.96L97.712 13.18V14H91.672V13.18L93.712 12.96C93.7387 12.3333 93.752 11.68 93.752 11C93.752 10.32 93.752 9.59333 93.752 8.82L90.212 1.62L88.632 1.44Z" fill="white"/>
<path d="M82.7208 1.54H81.0008C80.9875 2.42 80.9741 3.29999 80.9608 4.18C80.9608 5.04666 80.9608 5.95333 80.9608 6.9H82.5008C83.5808 6.9 84.3741 6.64 84.8808 6.12C85.4008 5.6 85.6608 4.94 85.6608 4.14C85.6608 3.29999 85.4275 2.65999 84.9608 2.22C84.4941 1.76666 83.7475 1.54 82.7208 1.54ZM77.1808 1.44V0.619995H82.7808C84.3141 0.619995 85.5075 0.926662 86.3608 1.54C87.2141 2.15333 87.6408 3.01333 87.6408 4.12C87.6408 4.89333 87.3608 5.6 86.8008 6.24C86.2408 6.88 85.4008 7.3 84.2808 7.5C84.8675 7.62 85.3475 7.88 85.7208 8.28C86.1075 8.66666 86.4141 9.25333 86.6408 10.04L87.5008 13L89.0408 13.18V14C88.8408 14.0533 88.6141 14.1 88.3608 14.14C88.1208 14.18 87.8475 14.2 87.5408 14.2C86.9141 14.2 86.4408 14.1067 86.1208 13.92C85.8141 13.7333 85.6008 13.4 85.4808 12.92L84.6808 9.72C84.5608 9.17333 84.3875 8.76666 84.1608 8.5C83.9341 8.22 83.6408 8.03333 83.2808 7.94C82.9341 7.84666 82.4875 7.8 81.9408 7.8H80.9608C80.9608 8.76 80.9608 9.66 80.9608 10.5C80.9741 11.34 80.9875 12.16 81.0008 12.96L82.8408 13.18V14H77.1808V13.18L79.0208 12.96C79.0475 12.12 79.0608 11.2667 79.0608 10.4C79.0608 9.53333 79.0608 8.66666 79.0608 7.8V6.82C79.0608 5.95333 79.0608 5.09333 79.0608 4.24C79.0608 3.37333 79.0475 2.51333 79.0208 1.65999L77.1808 1.44Z" fill="white"/>
<path d="M69.7284 14.3C68.9551 14.3 68.2018 14.1533 67.4684 13.86C66.7351 13.5533 66.0751 13.1067 65.4884 12.52C64.9018 11.9333 64.4351 11.2067 64.0884 10.34C63.7551 9.46001 63.5884 8.44667 63.5884 7.30001C63.5884 6.20667 63.7618 5.22667 64.1084 4.36001C64.4551 3.49334 64.9151 2.76001 65.4884 2.16001C66.0751 1.56001 66.7351 1.10667 67.4684 0.800007C68.2018 0.480007 68.9551 0.320007 69.7284 0.320007C70.5018 0.320007 71.2484 0.473341 71.9684 0.780007C72.7018 1.07334 73.3551 1.51334 73.9284 2.10001C74.5151 2.68667 74.9818 3.41334 75.3284 4.28001C75.6751 5.14667 75.8484 6.15334 75.8484 7.30001C75.8484 8.39334 75.6751 9.37334 75.3284 10.24C74.9951 11.1067 74.5351 11.8467 73.9484 12.46C73.3751 13.06 72.7218 13.52 71.9884 13.84C71.2551 14.1467 70.5018 14.3 69.7284 14.3ZM69.7284 13.3C70.4218 13.3 71.0151 13.1333 71.5084 12.8C72.0151 12.4533 72.4218 12 72.7284 11.44C73.0484 10.8667 73.2818 10.2267 73.4284 9.52001C73.5751 8.80001 73.6484 8.06001 73.6484 7.30001C73.6484 6.55334 73.5751 5.82667 73.4284 5.12001C73.2818 4.40001 73.0484 3.75334 72.7284 3.18001C72.4218 2.60667 72.0151 2.15334 71.5084 1.82001C71.0151 1.48667 70.4218 1.32001 69.7284 1.32001C69.0351 1.32001 68.4351 1.48667 67.9284 1.82001C67.4351 2.15334 67.0284 2.60667 66.7084 3.18001C66.3884 3.75334 66.1484 4.40001 65.9884 5.12001C65.8418 5.82667 65.7684 6.55334 65.7684 7.30001C65.7684 8.06001 65.8418 8.80001 65.9884 9.52001C66.1484 10.2267 66.3884 10.8667 66.7084 11.44C67.0284 12 67.4351 12.4533 67.9284 12.8C68.4351 13.1333 69.0351 13.3 69.7284 13.3Z" fill="white"/>
<path d="M56.5003 14.3C55.167 14.3 53.9936 14 52.9803 13.4C51.967 12.7867 51.1736 11.9533 50.6003 10.9C50.0403 9.84667 49.7603 8.64667 49.7603 7.30001C49.7603 5.95334 50.047 4.76001 50.6203 3.72001C51.1936 2.66667 51.987 1.84001 53.0003 1.24001C54.027 0.626674 55.2203 0.320007 56.5803 0.320007C57.407 0.320007 58.1403 0.400007 58.7803 0.560007C59.4336 0.706674 60.0403 0.940007 60.6003 1.26001L60.6803 4.18001H59.4403L59.0403 1.90001C58.347 1.51334 57.587 1.32001 56.7603 1.32001C55.8403 1.32001 55.0136 1.55334 54.2803 2.02001C53.5603 2.48667 52.987 3.16667 52.5603 4.06001C52.147 4.94001 51.9403 6.02001 51.9403 7.30001C51.9403 9.20667 52.3803 10.68 53.2603 11.72C54.1403 12.76 55.347 13.28 56.8803 13.28C57.6403 13.28 58.3537 13.1467 59.0203 12.88V12.24C59.0203 11.64 59.0137 11.04 59.0003 10.44C59.0003 9.82667 58.9936 9.22001 58.9803 8.62001L56.9003 8.44001V7.64001H62.1603V8.44001L60.9403 8.56001C60.927 9.16001 60.9137 9.76667 60.9003 10.38C60.9003 10.9933 60.9003 11.6133 60.9003 12.24V13.12C60.207 13.48 59.507 13.7667 58.8003 13.98C58.0936 14.1933 57.327 14.3 56.5003 14.3Z" fill="white"/>
<path d="M37.6495 1.44V0.619995H47.6095L47.7495 4.16H46.6095L46.1695 1.62H41.4695C41.4562 2.47333 41.4429 3.32666 41.4295 4.18C41.4295 5.03333 41.4295 5.87333 41.4295 6.7H44.3695L44.6495 4.8H45.5695V9.51999H44.6495L44.3895 7.64H41.4295C41.4295 8.64 41.4295 9.58 41.4295 10.46C41.4429 11.3267 41.4562 12.1733 41.4695 13H46.5695L47.0095 10.44H48.1495L48.0095 14H37.6495V13.18L39.4895 12.96C39.5162 12.12 39.5295 11.2667 39.5295 10.4C39.5295 9.53333 39.5295 8.66666 39.5295 7.8V6.82C39.5295 5.95333 39.5295 5.09333 39.5295 4.24C39.5295 3.37333 39.5162 2.51333 39.4895 1.65999L37.6495 1.44Z" fill="white"/>
<path d="M25.0992 4.18L25.2592 0.619995H36.2192L36.3792 4.18H35.2192L34.7792 1.62H31.7192C31.7059 2.47333 31.6926 3.33333 31.6792 4.2C31.6792 5.06666 31.6792 5.94 31.6792 6.82V7.8C31.6792 8.65333 31.6792 9.51333 31.6792 10.38C31.6926 11.2333 31.7059 12.0933 31.7192 12.96L33.7592 13.18V14H27.7192V13.18L29.7592 12.96C29.7859 12.1067 29.7992 11.2533 29.7992 10.4C29.7992 9.53333 29.7992 8.66666 29.7992 7.8V6.82C29.7992 5.95333 29.7992 5.08666 29.7992 4.22C29.7992 3.35333 29.7859 2.48666 29.7592 1.62H26.6992L26.2592 4.18H25.0992Z" fill="white"/>
<path d="M18.8089 2.76002L16.7889 8.72002H20.8089L18.8089 2.76002ZM12.7289 14V13.18L14.4089 12.92L18.6689 0.52002H19.9289L24.1889 13L25.6889 13.18V14H20.2489V13.18L22.2089 12.94L21.1089 9.66002H16.4689L15.3489 12.92L17.3089 13.18V14H12.7289Z" fill="white"/>
<path d="M7.73172 14.3C6.38506 14.3 5.19839 14.0067 4.17172 13.42C3.15839 12.82 2.36505 11.9933 1.79172 10.94C1.23172 9.88667 0.951721 8.67334 0.951721 7.30001C0.951721 6.28667 1.11839 5.36001 1.45172 4.52001C1.79839 3.66667 2.27172 2.92667 2.87172 2.30001C3.48505 1.67334 4.19839 1.18667 5.01172 0.840007C5.83839 0.493341 6.73839 0.320007 7.71172 0.320007C8.25839 0.320007 8.87172 0.386674 9.55172 0.520007C10.2317 0.640007 10.9051 0.89334 11.5717 1.28001L11.6517 4.18001H10.4117L10.0117 1.86001C9.65172 1.66001 9.29839 1.52001 8.95172 1.44001C8.61839 1.36001 8.29172 1.32001 7.97172 1.32001C7.07839 1.32001 6.26506 1.54667 5.53172 2.00001C4.79839 2.45334 4.21172 3.12667 3.77172 4.02001C3.34505 4.90001 3.13172 5.99334 3.13172 7.30001C3.13172 8.60667 3.33172 9.70667 3.73172 10.6C4.13172 11.4933 4.68505 12.1667 5.39172 12.62C6.11172 13.0733 6.92506 13.3 7.83172 13.3C8.21839 13.3 8.61172 13.26 9.01172 13.18C9.42505 13.0867 9.82505 12.9467 10.2117 12.76L10.6117 10.44H11.8517L11.7717 13.34C11.1584 13.6733 10.5051 13.9133 9.81172 14.06C9.13172 14.22 8.43839 14.3 7.73172 14.3Z" fill="white"/>
</svg>
